#!OML:ASF E:\Style6\Style6.ASF
:FULLY-SPECIFIED
:DEGREES
2131
root 0.0403907 18.0904 0.522918 7.92086 -17.6342 -5.649
lowerback 2.3832 0.286967 0.269621
upperback -0.572276 0.438426 2.78067
thorax -1.94376 0.230307 2.68813
lowerneck -6.19458 -0.962543 5.11855
upperneck 3.65064 -1.25407 -9.40168
head 2.20861 -0.820729 -4.10881
rclavicle -4.77704e-014 3.8763e-015
rhumerus -23.191 -20.3375 -32.6991
rradius 70.584
rwrist 25.7353
rhand 11.2877 11.6594
rfingers 7.12502
rthumb 36.3467 -14.5712
lclavicle -4.77704e-014 3.8763e-015
lhumerus -56.723 -37.8616 93.252
lradius 66.6943
lwrist 17.1573
lhand 8.43616 15.0909
lfingers 7.12502
lthumb 33.6416 41.9535
rfemur -12.2214 8.02397 24.6382
rtibia 15.5204
rfoot -3.94504 -3.86971
rtoes -3.16343
lfemur -11.7318 -3.39684 -14.0974
ltibia 26.8333
lfoot -14.5487 25.3126
ltoes -8.02385
2132
root 0.046514 18.092 0.529754 7.79974 -17.4864 -5.69409
lowerback 2.29412 0.281588 0.259707
upperback -0.526017 0.427359 2.73038
thorax -1.84532 0.223933 2.64244
lowerneck -6.33278 -0.979992 5.06591
upperneck 3.70685 -1.27362 -9.39909
head 2.2516 -0.834954 -4.10238
rclavicle 3.6713e-014 -1.07841e-014
rhumerus -23.8793 -20.0964 -33.6478
rradius 70.1969
rwrist 26.1338
rhand 10.7512 11.8302
rfingers 7.12502
rthumb 35.8385 -14.5258
lclavicle 3.6713e-014 -1.07841e-014
lhumerus -55.8856 -37.4327 92.989
lradius 65.2382
lwrist 16.5661
lhand 8.32596 15.094
lfingers 7.12502
lthumb 33.5369 41.9794
rfemur -11.8988 8.08293 24.6844
rtibia 15.2486
rfoot -3.93133 -4.08995
rtoes -2.79323
lfemur -11.5575 -3.58896 -14.0656
ltibia 26.7794
lfoot -14.4786 25.342
ltoes -8.29348
2133
root 0.0518637 18.0933 0.535508 7.75561 -17.4091 -5.83995
lowerback 2.16452 0.296536 0.294383
upperback -0.519416 0.445529 2.71797
thorax -1.76617 0.232179 2.6098
lowerneck -6.32606 -0.986943 5.02475
upperneck 3.69827 -1.28001 -9.39292
head 2.24687 -0.838343 -4.09185
rclavicle -1.47691e-014 -1.34925e-014
rhumerus -24.5638 -19.8663 -34.6268
rradius 69.8186
rwrist 26.4995
rhand 10.402 11.7858
rfingers 7.12502
rthumb 35.5075 -14.6502
lclavicle -1.47691e-014 -1.34925e-014
lhumerus -55.1054 -36.8973 92.7152
lradius 63.7703
lwrist 15.92
lhand 8.25623 15.1113
lfingers 7.12502
lthumb 33.4706 42.011
rfemur -11.6214 8.22861 24.8196
rtibia 14.9603
rfoot -3.89017 -4.3031
rtoes -2.66145
lfemur -11.4225 -3.73638 -13.9419
ltibia 26.7255
lfoot -14.2963 25.4719
ltoes -9.12259
2134
root 0.0587345 18.0966 0.536618 7.7033 -17.2544 -5.98444
lowerback 2.13323 0.286876 0.367375
upperback -0.557729 0.434944 2.71111
thorax -1.78686 0.226361 2.56212
lowerneck -6.21796 -1.00253 4.98901
upperneck 3.65446 -1.29566 -9.43527
head 2.21077 -0.844968 -4.09713
rclavicle 3.25209e-015 2.5081e-016
rhumerus -25.2594 -19.6636 -35.5925
rradius 69.4111
rwrist 26.8832
rhand 10.1227 11.8075
rfingers 7.12502
rthumb 35.2427 -14.6915
lclavicle 3.25209e-015 2.5081e-016
lhumerus -54.3433 -36.2276 92.4357
lradius 62.2384
lwrist 15.1142
lhand 8.13471 15.1217
lfingers 7.12502
lthumb 33.3551 42.0463
rfemur -11.3565 8.31494 24.965
rtibia 14.6752
rfoot -3.86565 -4.55033
rtoes -2.28269
lfemur -11.3144 -3.96045 -13.8071
ltibia 26.6556
lfoot -14.1823 25.5873
ltoes -9.5151
2135
root 0.0649629 18.1017 0.537802 7.60705 -17.0544 -5.98103
lowerback 2.09794 0.28114 0.308788
upperback -0.590342 0.425232 2.66334
thorax -1.80013 0.222221 2.54628
lowerneck -6.1942 -1.05718 4.94135
upperneck 3.69975 -1.35992 -9.46842
head 2.21614 -0.878668 -4.10222
rclavicle -1.63221e-015 -1.09829e-014
rhumerus -26.0075 -19.5266 -36.5246
rradius 69.0128
rwrist 27.1996
rhand 9.87385 11.8716
rfingers 7.12502
rthumb 35.0067 -14.6829
lclavicle -1.63221e-015 -1.09829e-014
lhumerus -53.5497 -35.6617 92.1532
lradius 60.6991
lwrist 14.2853
lhand 7.89908 15.1522
lfingers 7.12502
lthumb 33.1311 42.1247
rfemur -11.0882 8.32287 24.9692
rtibia 14.3964
rfoot -3.82556 -4.77205
rtoes -2.23339
lfemur -11.2096 -4.30937 -13.817
ltibia 26.5605
lfoot -14.0789 25.7369
ltoes -9.63517
2136
root 0.0714841 18.1068 0.539891 7.52272 -16.8498 -5.96387
lowerback 2.02247 0.254052 0.244185
upperback -0.607866 0.385606 2.60433
thorax -1.77402 0.202877 2.52343
lowerneck -6.23401 -1.09286 4.94587
upperneck 3.76146 -1.40299 -9.51633
head 2.24077 -0.903044 -4.12412
rclavicle -3.06719e-014 -1.65985e-014
rhumerus -26.6685 -19.5301 -37.5348
rradius 68.5407
rwrist 27.5706
rhand 9.65566 11.9407
rfingers 7.12502
rthumb 34.7997 -14.6619
lclavicle -3.06719e-014 -1.65985e-014
lhumerus -52.647 -35.092 91.8348
lradius 58.9555
lwrist 13.4591
lhand 7.57685 15.043
lfingers 7.12502
lthumb 32.8246 42.0801
rfemur -10.8376 8.37003 24.9528
rtibia 14.1272
rfoot -3.77999 -5.03468
rtoes -2.63783
lfemur -11.092 -4.73037 -13.8506
ltibia 26.4397
lfoot -14.1796 25.9228
ltoes -9.22008
2137
root 0.078458 18.1096 0.540804 7.43007 -16.6691 -5.93196
lowerback 1.99851 0.215881 0.173833
upperback -0.64079 0.332561 2.55915
thorax -1.79222 0.177237 2.51839
lowerneck -6.25905 -1.09732 4.87001
upperneck 3.80697 -1.39956 -9.52995
head 2.26099 -0.904127 -4.11553
rclavicle -7.48673e-014 -9.44227e-016
rhumerus -27.3175 -19.5391 -38.5427
rradius 68.0698
rwrist 27.9423
rhand 9.41942 11.9419
rfingers 7.12502
rthumb 34.5755 -14.7123
lclavicle -7.48673e-014 -9.44227e-016
lhumerus -51.6329 -34.3666 91.502
lradius 56.923
lwrist 12.3933
lhand 7.27322 14.8547
lfingers 7.12502
lthumb 32.5357 41.9517
rfemur -10.6034 8.4716 24.9206
rtibia 13.89
rfoot -3.72166 -5.35338
rtoes -3.34353
lfemur -10.9419 -5.095 -13.9025
ltibia 26.282
lfoot -14.3926 26.0005
ltoes -8.17178
2138
root 0.0845982 18.1117 0.54041 7.42198 -16.5072 -5.9604
lowerback 1.91003 0.204257 0.13402
upperback -0.67695 0.315217 2.54466
thorax -1.77903 0.16911 2.52666
lowerneck -6.34011 -1.08946 4.8202
upperneck 3.88152 -1.37956 -9.57707
head 2.30298 -0.899189 -4.12563
rclavicle -8.22472e-015 3.3197e-014
rhumerus -27.9916 -19.5495 -39.4969
rradius 67.611
rwrist 28.3258
rhand 9.1671 11.8948
rfingers 7.12502
rthumb 34.3359 -14.8137
lclavicle -8.22472e-015 3.3197e-014
lhumerus -50.6026 -33.6014 91.1421
lradius 54.9325
lwrist 11.2218
lhand 6.93857 14.7631
lfingers 7.12502
lthumb 32.2172 41.9252
rfemur -10.4475 8.66583 24.9314
rtibia 13.6472
rfoot -3.73174 -5.70901
rtoes -2.67951
lfemur -10.8711 -5.36747 -13.8775
ltibia 26.1228
lfoot -14.4254 26.0739
ltoes -7.75573
2139
root 0.091859 18.1152 0.54152 7.40102 -16.3759 -5.91711
lowerback 1.76844 0.21103 0.0492039
upperback -0.683249 0.319371 2.48848
thorax -1.70625 0.171568 2.51659
lowerneck -6.50215 -1.09175 4.83216
upperneck 4.01358 -1.37586 -9.63812
head 2.37831 -0.904356 -4.15692
rclavicle 2.0071e-014 3.81667e-014
rhumerus -28.6597 -19.6504 -40.4223
rradius 67.0994
rwrist 28.7305
rhand 9.01817 11.919
rfingers 7.12502
rthumb 34.1945 -14.8214
lclavicle 2.0071e-014 3.81667e-014
lhumerus -49.4869 -32.829 90.7138
lradius 52.909
lwrist 9.97216
lhand 6.42063 14.6795
lfingers 7.12502
lthumb 31.724 41.9404
rfemur -10.2906 8.86501 24.8532
rtibia 13.3883
rfoot -3.76265 -6.012
rtoes -1.54055
lfemur -10.792 -5.69767 -13.9442
ltibia 25.9606
lfoot -14.4606 26.2208
ltoes -7.56117
